# AST/ASF file generated using VICON BodyLanguage
# -----------------------------------------------
:version 1.10
:name VICON
:units
  mass 1.0
  length 0.45
  angle deg
:documentation
   .ast/.asf automatically generated from VICON data using
   VICON BodyBuilder and BodyLanguage model FoxedUp or BRILLIANT.MOD
:root
   order TX TY TZ RX RY RZ
   axis XYZ
   position 0 0 0  
   orientation 0 0 0 
:bonedata
  begin
     id 1 
     name lhipjoint
     direction 0.624716 -0.669793 0.401383 
     length 2.38238 
     axis 0 0 0  XYZ
  end
  begin
     id 2 
     name lfemur
     direction 0.34202 -0.939693 0  
     length 6.4574  
     axis 0 0 20  XYZ
    dof rx ry rz
    limits (-160.0 20.0)
           (-70.0 70.0)
           (-60.0 70.0)
  end
  begin
     id 3 
     name ltibia
     direction 0.34202 -0.939693 0   
     length 7.68739   
     axis 0 0 20   XYZ
    dof rx
    limits (-10.0 170.0)
  end
  begin
     id 4 
     name lfoot
     direction 0.0681309 -0.187188 0.979959   
     length 2.46615   
     axis -90 7.62852e-016 20   XYZ
    dof rx rz
    limits (-45.0 90.0)
           (-70.0 20.0)
  end
  begin
     id 5 
     name ltoes
     direction 1.53566e-011 -4.21819e-011 1   
     length 1.2376   
     axis -90 7.62852e-016 20   XYZ
    dof rx
    limits (-90.0 20.0)
  end
  begin
     id 6 
     name rhipjoint
     direction -0.644473 -0.655875 0.393043   
     length 2.43293  
     axis 0 0 0  XYZ 
  end
  begin
     id 7 
     name rfemur
     direction -0.34202 -0.939693 0   
     length 6.7025   
     axis 0 0 -20   XYZ
    dof rx ry rz
    limits (-160.0 20.0)
           (-70.0 70.0)
           (-70.0 60.0)
  end
  begin
     id 8 
     name rtibia
     direction -0.34202 -0.939693 0   
     length 7.80547   
     axis 0 0 -20   XYZ
    dof rx
    limits (-10.0 170.0)
 end
 begin
     id 9 
     name rfoot
     direction -0.0756734 -0.207911 0.975216   
     length 2.40315  
     axis -90 -7.62852e-016 -20   XYZ
    dof rx rz
    limits (-45.0 90.0)
           (-20.0 70.0)
  end
  begin
     id 10 
     name rtoes
     direction -1.5353e-011 -4.21879e-011 1   
     length 1.20477   
     axis -90 -7.62852e-016 -20   XYZ
    dof rx
    limits (-90.0 20.0)
  end
  begin
     id 11 
     name lowerback
     direction 0.0160353 0.987463 -0.157037   
     length 2.18572   
     axis 0 0 0   XYZ
    dof rx ry rz
    limits (-20.0 45.0)
           (-30.0 30.0)
           (-30.0 30.0)
  end
  begin
     id 12 
     name upperback
     direction -0.00499661 0.999756 0.0215076   
     length 2.18016   
     axis 0 0 0   XYZ
    dof rx ry rz
    limits (-20.0 45.0)
           (-30.0 30.0)
           (-30.0 30.0)
  end
  begin
     id 13 
     name thorax
     direction -0.00921346 0.995333 0.0960619   
     length 2.24923   
     axis 0 0 0   XYZ
    dof rx ry rz
    limits (-20.0 45.0)
           (-30.0 30.0)
           (-30.0 30.0)
  end
  begin
     id 14 
     name lowerneck
     direction 0.0274184 0.991181 0.12965   
     length 1.70911   
     axis 0 0 0   XYZ
    dof rx ry rz
    limits (-20.0 45.0)
           (-30.0 30.0)
           (-30.0 30.0)
  end
  begin
     id 15 
     name upperneck
     direction 0.0015627 0.999959 -0.00893559   
     length 1.69312   
     axis 0 0 0   XYZ
    dof rx ry rz
    limits (-20.0 45.0)
           (-30.0 30.0)
           (-30.0 30.0)
  end
  begin
     id 16
     name head
     direction -0.00230242 0.999856 -0.0168327  
     length 1.80241  
     axis 0 0 0   XYZ
    dof rx ry rz
    limits (-20.0 45.0)
           (-30.0 30.0)
           (-30.0 30.0)
  end
  begin
     id 17 
     name lclavicle
     direction 0.955523 0.290741 -0.0494489  
     length 3.84275  
     axis 0 0 0   XYZ
    dof ry rz
    limits (-20.0 10.0)
           (0.0 20.0)
  end
  begin
     id 18 
     name lhumerus
     direction 1 -4.48967e-011 -3.18382e-028   
     length 5.17714   
     axis 180 -30 -90   XYZ
    dof rx ry rz
    limits (-60.0 90.0)
           (-90.0 90.0)
           (-90.0 90.0)
  end
  begin
     id 19
     name lradius
     direction 1 -4.48968e-011 -2.22911e-027   
     length 3.43679   
     axis 180 -30 -90   XYZ
    dof rx
    limits (-10.0 170.0)
  end
  begin
     id 20
     name lwrist
     direction 1 -4.48951e-011 -6.32245e-027   
     length 1.7184   
     axis 3.57107e-015 90 90   XYZ
    dof ry
    limits (-180.0 0.0)
 end
  begin
     id 21 
     name lhand
     direction 1 -4.48924e-011 -1.26431e-026   
     length 0.573117   
     axis 8.06912e-015 90 90   XYZ
    dof rx rz
    limits (-90.0 90.0)
           (-45.0 45.0)
  end
  begin
     id 22 
     name lfingers
     direction 1 -4.49001e-011 -2.52965e-026   
     length 0.462062   
     axis 1.61381e-014 90 90   XYZ
    dof rx
    limits (0.0 90.0)
  end
  begin
     id 23
     name lthumb
     direction 0.707107 -6.35008e-011 0.707107   
     length 0.663431   
     axis -90 45 -1.62303e-014   XYZ
    dof rx rz
    limits (-45.0 45.0)
           (-45.0 45.0)
  end
  begin
     id 24 
     name rclavicle
     direction -0.963917 0.256881 -0.0698287   
     length 3.73057  
     axis 0 0 0   XYZ 
    dof ry rz
    limits (-10.0 20.0)
           (-20.0 0.0)
  end
  begin
     id 25 
     name rhumerus
     direction -1 -4.48962e-011 -2.73982e-027  
     length 5.23908   
     axis 180 30 90   XYZ
    dof rx ry rz
    limits (-90.0 60.0)
           (-90.0 90.0)
           (-90.0 90.0)
  end
  begin
     id 26 
     name rradius
     direction -1 -4.48968e-011 -4.33218e-027   
     length 3.46485   
     axis 180 30 90   XYZ
    dof rx
    limits (-10.0 170.0)
  end
  begin
     id 27 
     name rwrist
     direction -1 -4.48989e-011 -6.32372e-027   
     length 1.73243   
     axis 3.57107e-015 -90 -90   XYZ
    dof ry
    limits (-180.0 0.0)
  end
  begin
     id 28
     name rhand
     direction -1 -4.48948e-011 -1.26448e-026   
     length 0.608752   
     axis 8.06912e-015 -90 -90   XYZ
    dof rx rz
    limits (-90.0 90.0)
           (-45.0 45.0)
  end
  begin
     id 29
     name rfingers
     direction -1 -4.48962e-011 -2.52913e-026   
     length 0.490792   
     axis 1.61381e-014 -90 -90   XYZ
    dof rx
    limits (0.0 90.0)
  end
  begin
     id 30
     name rthumb
     direction -0.707107 -6.34878e-011 0.707107   
     length 0.704682   
     axis -90 -45 1.62303e-014   XYZ
    dof rx rz
    limits (-45.0 45.0)
           (-45.0 45.0)
  end
:hierarchy
  begin
    root lhipjoint rhipjoint lowerback
    lhipjoint lfemur
    lfemur ltibia
    ltibia lfoot
    lfoot ltoes
    rhipjoint rfemur
    rfemur rtibia
    rtibia rfoot
    rfoot rtoes
    lowerback upperback
    upperback thorax
    thorax lowerneck lclavicle rclavicle
    lowerneck upperneck
    upperneck head
    lclavicle lhumerus
    lhumerus lradius
    lradius lwrist
    lwrist lhand lthumb
    lhand lfingers
    rclavicle rhumerus
    rhumerus rradius
    rradius rwrist
    rwrist rhand rthumb
    rhand rfingers
  end

#!OML:ASF G:\JayActor3\Patient Classification 1\Patient 1\Session 6\male.ASF
:FULLY-SPECIFIED
:DEGREES
367
root 42.8051 16.4259 9.23843 178.917 -54.7695 -184.286
lowerback 3.85292 -3.6419 0.637755
upperback -5.62221 -4.77909 4.21972
thorax -7.74847 -2.33911 4.59824
lowerneck -4.58174 4.24318 9.70028
upperneck -0.809986 5.1467 -4.54828
head 0.94744 2.48733 -3.04227
rclavicle -2.90226e-014 -1.59028e-015
rhumerus -46.6331 5.43237 -71.8887
rradius 28.7973
rwrist 0.258593
rhand -12.6857 -3.86639
rfingers 7.12502
rthumb 13.3962 -33.4157
lclavicle -2.90226e-014 -1.59028e-015
lhumerus -48.6965 -28.1208 101.584
lradius 43.1966
lwrist 30.0724
lhand -11.5067 8.48687
lfingers 7.12502
lthumb 14.5324 37.9579
rfemur -7.51022 -2.07367 17.1824
rtibia 26.4773
rfoot -20.1055 -14.5873
rtoes 8.4297
lfemur 6.75407 17.3581 -4.55818
ltibia 44.2124
lfoot 14.6797 13.5398
ltoes 10.4955
368
root 42.7805 16.4323 9.15716 178.339 -54.9765 -183.825
lowerback 4.01656 -3.52847 1.07277
upperback -5.56364 -4.58771 4.25038
thorax -7.82589 -2.26788 4.38087
lowerneck -4.60944 4.21055 9.64935
upperneck -0.709205 5.10924 -4.67232
head 0.984999 2.47058 -3.07542
rclavicle 1.09729e-013 4.77083e-014
rhumerus -46.3822 5.5432 -72.2023
rradius 28.8027
rwrist 0.183099
rhand -12.845 -3.91995
rfingers 7.12502
rthumb 13.2426 -33.4793
lclavicle 1.09729e-013 4.77083e-014
lhumerus -48.6852 -27.9925 101.282
lradius 43.4296
lwrist 30.0863
lhand -11.6546 8.50788
lfingers 7.12502
lthumb 14.3898 37.9891
rfemur -6.61124 -2.52136 17.608
rtibia 25.7765
rfoot -20.0514 -14.4074
rtoes 8.50305
lfemur 5.35638 17.8938 -4.05525
ltibia 46.5157
lfoot 14.6698 15.3698
ltoes 13.2899
369
root 42.7558 16.4372 9.07716 177.735 -55.1585 -183.324
lowerback 4.17345 -3.40973 1.52224
upperback -5.50442 -4.38729 4.28471
thorax -7.89783 -2.19355 4.15682
lowerneck -4.63244 4.17633 9.59621
upperneck -0.616551 5.07007 -4.79327
head 1.01877 2.45264 -3.10737
rclavicle -3.77691e-014 2.54444e-014
rhumerus -46.1254 5.66845 -72.5231
rradius 28.8063
rwrist 0.131116
rhand -12.9573 -3.95315
rfingers 7.12502
rthumb 13.1343 -33.5195
lclavicle -3.77691e-014 2.54444e-014
lhumerus -48.6563 -27.8326 100.961
lradius 43.6339
lwrist 30.0894
lhand -11.8054 8.5242
lfingers 7.12502
lthumb 14.2445 38.0157
rfemur -5.72978 -2.90379 18.0557
rtibia 25.0773
rfoot -20.0184 -14.2752
rtoes 8.55613
lfemur 3.9734 18.4664 -3.56538
ltibia 48.7166
lfoot 14.1602 17.0613
ltoes 15.3796
370
root 42.7313 16.4409 8.99851 177.108 -55.3106 -182.781
lowerback 4.31356 -3.28458 1.98866
upperback -5.44048 -4.1768 4.32091
thorax -7.95406 -2.11593 3.92156
lowerneck -4.65273 4.14224 9.54312
upperneck -0.540972 5.03073 -4.90794
head 1.04629 2.43406 -3.13741
rclavicle 3.89618e-014 1.74931e-014
rhumerus -45.8529 5.80254 -72.8584
rradius 28.8043
rwrist 0.0870341
rhand -13.0432 -3.98951
rfingers 7.12502
rthumb 13.0515 -33.5612
lclavicle 3.89618e-014 1.74931e-014
lhumerus -48.6094 -27.6481 100.619
lradius 43.8092
lwrist 30.071
lhand -11.962 8.50875
lfingers 7.12502
lthumb 14.0937 38.0108
rfemur -4.87417 -3.20475 18.5307
rtibia 24.3841
rfoot -20.0497 -14.1722
rtoes 8.73954
lfemur 2.60395 19.057 -3.09594
ltibia 50.8037
lfoot 13.2212 18.4411
ltoes 16.6628
371
root 42.7066 16.4437 8.9213 176.505 -55.4403 -182.255
lowerback 4.43785 -3.15229 2.4451
upperback -5.37629 -3.95761 4.34592
thorax -7.99848 -2.03405 3.67679
lowerneck -4.65154 4.10286 9.50213
upperneck -0.497306 4.98507 -5.02885
head 1.05972 2.41163 -3.17273
rclavicle -9.46215e-014 9.85972e-014
rhumerus -45.5752 5.93391 -73.2086
rradius 28.7921
rwrist 0.0493997
rhand -13.1305 -4.02416
rfingers 7.12502
rthumb 12.9674 -33.6012
lclavicle -9.46215e-014 9.85972e-014
lhumerus -48.5519 -27.4452 100.255
lradius 43.9514
lwrist 30.0441
lhand -12.1091 8.43506
lfingers 7.12502
lthumb 13.9518 37.9469
rfemur -4.04529 -3.4408 18.9953
rtibia 23.7045
rfoot -20.1127 -14.1143
rtoes 8.86677
lfemur 1.25274 19.6395 -2.69047
ltibia 52.7601
lfoot 12.0127 19.3923
ltoes 17.228
372
root 42.6817 16.446 8.84558 175.959 -55.5535 -181.786
lowerback 4.55349 -3.01866 2.86764
upperback -5.31421 -3.73912 4.35912
thorax -8.03567 -1.95086 3.43695
lowerneck -4.66803 4.07105 9.43111
upperneck -0.438472 4.94899 -5.1114
head 1.0796 2.39432 -3.18843
rclavicle 4.85035e-014 6.67916e-014
rhumerus -45.2873 6.0655 -73.5581
rradius 28.761
rwrist 0.063577
rhand -13.1869 -4.02157
rfingers 7.12502
rthumb 12.913 -33.602
lclavicle 4.85035e-014 6.67916e-014
lhumerus -48.4876 -27.2031 99.8684
lradius 44.0697
lwrist 30.0194
lhand -12.22 8.33377
lfingers 7.12502
lthumb 13.845 37.853
rfemur -3.23777 -3.63627 19.4214
rtibia 23.0384
rfoot -20.1915 -14.0872
rtoes 8.86997
lfemur -0.0826497 20.188 -2.38017
ltibia 54.5741
lfoot 10.7694 19.9059
ltoes 17.09
373
root 42.6562 16.4481 8.77119 175.474 -55.6494 -181.384
lowerback 4.65728 -2.88112 3.25385
upperback -5.25063 -3.51847 4.35585
thorax -8.06018 -1.86478 3.19773
lowerneck -4.71874 4.04589 9.33268
upperneck -0.348813 4.92005 -5.15494
head 1.11388 2.38101 -3.1845
rclavicle -1.36764e-013 4.77083e-014
rhumerus -44.985 6.17331 -73.8967
rradius 28.701
rwrist 0.161315
rhand -13.2163 -3.9756
rfingers 7.12502
rthumb 12.8847 -33.5579
lclavicle -1.36764e-013 4.77083e-014
lhumerus -48.4144 -26.9352 99.4581
lradius 44.1657
lwrist 30.0061
lhand -12.2954 8.21736
lfingers 7.12502
lthumb 13.7723 37.7415
rfemur -2.4495 -3.81296 19.7985
rtibia 22.3918
rfoot -20.2789 -14.0718
rtoes 8.72393
lfemur -1.39134 20.6921 -2.17237
ltibia 56.2397
lfoot 9.61764 20.0668
ltoes 16.4941
374
root 42.6301 16.4502 8.69796 175.036 -55.7302 -181.032
lowerback 4.75531 -2.74075 3.61052
upperback -5.18686 -3.29635 4.34103
thorax -8.07723 -1.77641 2.96131
lowerneck -4.80459 4.03243 9.19001
upperneck -0.23489 4.90541 -5.14182
head 1.15998 2.37524 -3.15146
rclavicle 6.91771e-014 3.97569e-014
rhumerus -44.6703 6.26119 -74.2207
rradius 28.6092
rwrist 0.352346
rhand -13.2266 -3.87481
rfingers 7.12502
rthumb 12.8748 -33.4577
lclavicle 6.91771e-014 3.97569e-014
lhumerus -48.3365 -26.6364 99.0263
lradius 44.2452
lwrist 29.9901
lhand -12.3352 8.11264
lfingers 7.12502
lthumb 13.7339 37.6394
rfemur -1.67899 -3.9676 20.1406
rtibia 21.7661
rfoot -20.3789 -14.0692
rtoes 8.44929
lfemur -2.67803 21.1491 -2.05305
ltibia 57.7625
lfoot 8.60218 19.9681
ltoes 15.5437
375
root 42.6031 16.4518 8.62564 174.652 -55.796 -180.751
lowerback 4.85155 -2.59865 3.92506
upperback -5.12119 -3.07505 4.31359
thorax -8.08665 -1.68595 2.73403
lowerneck -4.91378 4.02531 9.01463
upperneck -0.102538 4.89892 -5.09229
head 1.21449 2.3738 -3.09904
rclavicle 5.1684e-014 -4.13472e-014
rhumerus -44.3471 6.33809 -74.5303
rradius 28.4912
rwrist 0.633922
rhand -13.2155 -3.72524
rfingers 7.12502
rthumb 12.8855 -33.3075
lclavicle 5.1684e-014 -4.13472e-014
lhumerus -48.2512 -26.2989 98.5749
lradius 44.3052
lwrist 29.9685
lhand -12.3227 8.04825
lfingers 7.12502
lthumb 13.746 37.5742
rfemur -0.91997 -4.11356 20.4323
rtibia 21.1695
rfoot -20.4841 -14.0686
rtoes 8.0542
lfemur -3.93052 21.5728 -2.02505
ltibia 59.1541
lfoot 7.7242 19.6858
ltoes 14.3606
